<svg width="2000" height="4243" viewBox="0 0 2000 4243" fill="none" xmlns="http://www.w3.org/2000/svg">
<g clip-path="url(#clip0_1241_66)">
<line x1="-1" y1="119" x2="1999" y2="119" stroke="black" stroke-opacity="0.05" stroke-width="4"/>
<line x1="-1" y1="240" x2="1999" y2="240" stroke="black" stroke-opacity="0.05" stroke-width="4"/>
<line x1="-1" y1="361" x2="1999" y2="361" stroke="black" stroke-opacity="0.05" stroke-width="4"/>
<line x1="-1" y1="482" x2="1999" y2="482" stroke="black" stroke-opacity="0.05" stroke-width="4"/>
<line x1="-1" y1="603" x2="1999" y2="603" stroke="black" stroke-opacity="0.05" stroke-width="4"/>
<line x1="-1" y1="724" x2="1999" y2="724" stroke="black" stroke-opacity="0.05" stroke-width="4"/>
<line x1="-1" y1="845" x2="1999" y2="845" stroke="black" stroke-opacity="0.05" stroke-width="4"/>
<line x1="-1" y1="966" x2="1999" y2="966" stroke="black" stroke-opacity="0.05" stroke-width="4"/>
<line x1="-1" y1="1087" x2="1999" y2="1087" stroke="black" stroke-opacity="0.05" stroke-width="4"/>
<line x1="-1" y1="1208" x2="1999" y2="1208" stroke="black" stroke-opacity="0.05" stroke-width="4"/>
<line x1="-1" y1="1329" x2="1999" y2="1329" stroke="black" stroke-opacity="0.05" stroke-width="4"/>
<line x1="-1" y1="1450" x2="1999" y2="1450" stroke="black" stroke-opacity="0.05" stroke-width="4"/>
<line x1="-1" y1="1571" x2="1999" y2="1571" stroke="black" stroke-opacity="0.05" stroke-width="4"/>
<line x1="-1" y1="1692" x2="1999" y2="1692" stroke="black" stroke-opacity="0.05" stroke-width="4"/>
<line x1="-1" y1="1813" x2="1999" y2="1813" stroke="black" stroke-opacity="0.05" stroke-width="4"/>
<line x1="-1" y1="1934" x2="1999" y2="1934" stroke="black" stroke-opacity="0.05" stroke-width="4"/>
<line x1="-1" y1="2055" x2="1999" y2="2055" stroke="black" stroke-opacity="0.05" stroke-width="4"/>
<line x1="-1" y1="2176" x2="1999" y2="2176" stroke="black" stroke-opacity="0.05" stroke-width="4"/>
<line x1="-1" y1="2297" x2="1999" y2="2297" stroke="black" stroke-opacity="0.05" stroke-width="4"/>
<line x1="-1" y1="2418" x2="1999" y2="2418" stroke="black" stroke-opacity="0.05" stroke-width="4"/>
<line x1="-1" y1="2539" x2="1999" y2="2539" stroke="black" stroke-opacity="0.05" stroke-width="4"/>
<line x1="-1" y1="2660" x2="1999" y2="2660" stroke="black" stroke-opacity="0.05" stroke-width="4"/>
<line x1="-1" y1="2781" x2="1999" y2="2781" stroke="black" stroke-opacity="0.05" stroke-width="4"/>
<line x1="-1" y1="2902" x2="1999" y2="2902" stroke="black" stroke-opacity="0.05" stroke-width="4"/>
<line x1="-1" y1="3023" x2="1999" y2="3023" stroke="black" stroke-opacity="0.05" stroke-width="4"/>
<line x1="-1" y1="3144" x2="1999" y2="3144" stroke="black" stroke-opacity="0.05" stroke-width="4"/>
<line x1="-1" y1="3265" x2="1999" y2="3265" stroke="black" stroke-opacity="0.05" stroke-width="4"/>
<line x1="-1" y1="3386" x2="1999" y2="3386" stroke="black" stroke-opacity="0.05" stroke-width="4"/>
<line x1="-1" y1="3507" x2="1999" y2="3507" stroke="black" stroke-opacity="0.05" stroke-width="4"/>
<line x1="-1" y1="3628" x2="1999" y2="3628" stroke="black" stroke-opacity="0.05" stroke-width="4"/>
<line x1="-1" y1="3749" x2="1999" y2="3749" stroke="black" stroke-opacity="0.05" stroke-width="4"/>
<line x1="-1" y1="3870" x2="1999" y2="3870" stroke="black" stroke-opacity="0.05" stroke-width="4"/>
<line x1="-1" y1="3991" x2="1999" y2="3991" stroke="black" stroke-opacity="0.05" stroke-width="4"/>
<line x1="-1" y1="4112" x2="1999" y2="4112" stroke="black" stroke-opacity="0.05" stroke-width="4"/>
<line x1="-1" y1="4233" x2="1999" y2="4233" stroke="black" stroke-opacity="0.05" stroke-width="4"/>
</g>
<defs>
<clipPath id="clip0_1241_66">
<rect width="2000" height="4243" fill="white"/>
</clipPath>
</defs>
</svg>
